<svg width="1024" height="1024" viewBox="0 0 1024 1024" fill="none" xmlns="http://www.w3.org/2000/svg">
  <!-- Background gradient -->
  <defs>
    <linearGradient id="bgGradient" x1="0%" y1="0%" x2="100%" y2="100%">
      <stop offset="0%" style="stop-color:#6B73FF;stop-opacity:1" />
      <stop offset="100%" style="stop-color:#8B93FF;stop-opacity:1" />
    </linearGradient>
    <linearGradient id="cardGradient" x1="0%" y1="0%" x2="100%" y2="100%">
      <stop offset="0%" style="stop-color:#FFFFFF;stop-opacity:0.95" />
      <stop offset="100%" style="stop-color:#F8FAFC;stop-opacity:0.95" />
    </linearGradient>
  </defs>
  
  <!-- Background -->
  <rect width="1024" height="1024" rx="240" fill="url(#bgGradient)"/>
  
  <!-- Large medical cross -->
  <g transform="translate(512, 512)">
    <!-- Vertical line of cross - much larger -->
    <rect x="-20" y="-120" width="40" height="240" rx="20" fill="white" opacity="0.9"/>
    <!-- Horizontal line of cross - much larger -->
    <rect x="-120" y="-20" width="240" height="40" rx="20" fill="white" opacity="0.9"/>
  </g>
  
  <!-- Large note paper - much bigger and simpler -->
  <g transform="translate(512, 512)">
    <!-- Paper background - much larger -->
    <rect x="-200" y="-140" width="400" height="280" rx="40" fill="url(#cardGradient)" stroke="white" stroke-width="8" opacity="0.95"/>
    
    <!-- Simple lines on paper - fewer, thicker lines -->
    <rect x="-160" y="-80" width="240" height="8" rx="4" fill="#6B73FF" opacity="0.8"/>
    <rect x="-160" y="-40" width="200" height="8" rx="4" fill="#6B73FF" opacity="0.6"/>
    <rect x="-160" y="0" width="280" height="8" rx="4" fill="#6B73FF" opacity="0.7"/>
    <rect x="-160" y="40" width="180" height="8" rx="4" fill="#6B73FF" opacity="0.5"/>
    <rect x="-160" y="80" width="220" height="8" rx="4" fill="#6B73FF" opacity="0.6"/>
    
    <!-- Large heart icon on paper -->
    <g transform="translate(-120, 120)">
      <path d="M0 20C0 20 -10 10 -20 10C-30 10 -40 20 -40 30C-40 50 0 70 0 70C0 70 40 50 40 30C40 20 30 10 20 10C10 10 0 20 0 20Z" fill="#6B73FF" opacity="0.8"/>
    </g>
  </g>
  
  <!-- Subtle glow effect -->
  <circle cx="512" cy="512" r="400" fill="none" stroke="white" stroke-width="4" opacity="0.1"/>
</svg>
